<svg id="Group_192" data-name="Group 192" xmlns="http://www.w3.org/2000/svg" viewBox="3276.552 2121 94.897 94.897">
  <defs>
    <style>
      .cls-1, .cls-4 {
        fill: none;
      }

      .cls-1 {
        stroke: #4cacd1;
      }

      .cls-2 {
        fill: #4cacd1;
      }

      .cls-3 {
        stroke: none;
      }
    </style>
  </defs>
  <g id="Group_72" data-name="Group 72" transform="translate(1945.552)">
    <g id="Ellipse_14" data-name="Ellipse 14" class="cls-1" transform="translate(1331 2121)">
      <circle class="cls-3" cx="47.448" cy="47.448" r="47.448"/>
      <circle class="cls-4" cx="47.448" cy="47.448" r="46.948"/>
    </g>
    <g id="Group_55" data-name="Group 55" transform="translate(1350.555 2143.627)">
      <g id="Group_53" data-name="Group 53" transform="translate(0)">
        <path id="Path_51" data-name="Path 51" class="cls-2" d="M44.262,34.926c-.624,0-1-.054-1.085-.054H6.706l-.081-.027c-.081-.027-7.918-2.739-6.616-10.575,1.112-6.7,7.891-6.86,9.979-6.725-.19-2.034-.434-8.7,3.5-13.233C16.007,1.437,19.667,0,24.385,0,39.191,0,40.953,12.229,41.17,15c1.763-.244,7.376-.678,10.9,2.278A8.726,8.726,0,0,1,55,24.35c0,3.471-1.03,6.155-3.064,7.972A11.692,11.692,0,0,1,44.262,34.926Zm-37.366-1H43.258c.108,0,4.935.488,8.081-2.332,1.817-1.627,2.739-4.067,2.739-7.24A7.868,7.868,0,0,0,51.5,18.005C47.678,14.833,40.9,16,40.845,16.026l-.569.108v-.569c0-.6-.19-14.588-15.863-14.588-4.447,0-7.864,1.329-10.141,3.959C9.96,9.9,11.044,17.924,11.044,18.005l.081.624-.624-.081c-.353-.054-8.352-1.085-9.518,5.884C-.128,31.1,6.163,33.651,6.9,33.922Z" transform="translate(0.138)"/>
      </g>
      <g id="Group_54" data-name="Group 54" transform="translate(20.876 27.658)">
        <path id="Path_52" data-name="Path 52" class="cls-2" d="M80.85,102h4.42a.243.243,0,0,1,.244.244v11.985h3.552a.335.335,0,0,1,.217.108.2.2,0,0,1,0,.244L83.29,124.994a.254.254,0,0,1-.407,0l-5.993-10.413a.2.2,0,0,1,0-.244.22.22,0,0,1,.217-.108H80.66v-4.149a.244.244,0,0,1,.488,0v4.393a.243.243,0,0,1-.244.244H77.487l5.586,9.68,5.586-9.68H85.3a.243.243,0,0,1-.244-.244V102.488h-4.2a.244.244,0,0,1,0-.488Z" transform="translate(-76.85 -102)"/>
      </g>
    </g>
  </g>
</svg>
