<svg id="Group_193" data-name="Group 193" xmlns="http://www.w3.org/2000/svg" viewBox="3695.104 2121 94.897 94.897">
  <defs>
    <style>
      .cls-1, .cls-3, .cls-5 {
        fill: none;
      }

      .cls-1, .cls-3 {
        stroke: #4cacd1;
      }

      .cls-2 {
        fill: #4cacd1;
      }

      .cls-3 {
        stroke-miterlimit: 10;
        stroke-width: 0.5px;
      }

      .cls-4 {
        stroke: none;
      }
    </style>
  </defs>
  <g id="Group_71" data-name="Group 71" transform="translate(2782.104)">
    <g id="Ellipse_13" data-name="Ellipse 13" class="cls-1" transform="translate(913 2121)">
      <circle class="cls-4" cx="47.448" cy="47.448" r="47.448"/>
      <circle class="cls-5" cx="47.448" cy="47.448" r="46.948"/>
    </g>
    <g id="Group_67" data-name="Group 67" transform="translate(933 2149)">
      <g id="Group_63" data-name="Group 63">
        <path id="Path_60" data-name="Path 60" class="cls-2" d="M54.07,37.908H.488A.486.486,0,0,1,0,37.42V.488A.486.486,0,0,1,.488,0H54.07a.486.486,0,0,1,.488.488V37.42A.486.486,0,0,1,54.07,37.908ZM.976,36.932H53.609V.976H.976Z"/>
      </g>
      <g id="Group_64" data-name="Group 64" transform="translate(0.597 7.538)">
        <path id="Path_61" data-name="Path 61" class="cls-2" d="M46.155,28.288H2.444a.244.244,0,0,1,0-.488H46.155a.244.244,0,0,1,0,.488Z" transform="translate(-2.2 -27.8)"/>
      </g>
      <g id="Group_65" data-name="Group 65" transform="translate(5.966 3.552)">
        <path id="Path_62" data-name="Path 62" class="cls-2" d="M22.6,14.293h0a.6.6,0,0,1-.6-.6h0a.6.6,0,0,1,.6-.6h0a.6.6,0,0,1,.6.6h0A.569.569,0,0,1,22.6,14.293Z" transform="translate(-22 -13.1)"/>
      </g>
      <g id="Group_66" data-name="Group 66" transform="translate(9.626 3.552)">
        <path id="Path_63" data-name="Path 63" class="cls-2" d="M36.1,14.293h0a.6.6,0,0,1-.6-.6h0a.6.6,0,0,1,.6-.6h0a.6.6,0,0,1,.6.6h0A.585.585,0,0,1,36.1,14.293Z" transform="translate(-35.5 -13.1)"/>
      </g>
      <path id="Path_64" data-name="Path 64" class="cls-2" d="M77.12,71.31a3.01,3.01,0,1,1-3.01-3.01A3.02,3.02,0,0,1,77.12,71.31Z" transform="translate(-51.82 -49.78)"/>
      <path id="Path_65" data-name="Path 65" class="cls-2" d="M113.52,49.11a3.01,3.01,0,1,1-3.01-3.01A3.02,3.02,0,0,1,113.52,49.11Z" transform="translate(-78.35 -33.599)"/>
      <path id="Path_66" data-name="Path 66" class="cls-2" d="M113.52,93.41a3.01,3.01,0,1,1-3.01-3.01A3.02,3.02,0,0,1,113.52,93.41Z" transform="translate(-78.35 -65.887)"/>
      <path id="Path_67" data-name="Path 67" class="cls-3" d="M91.2,57.2l-9,6.02,9,5.993" transform="translate(-59.911 -41.69)"/>
    </g>
  </g>
</svg>
